# Blender 3.4.0
# www.blender.org
mtllib Bullet.mtl
o Bullet
v 1.436052 0.142536 1.133359
v -1.604049 1.076171 -0.200000
v -1.602275 0.931515 0.590644
v -1.602544 0.532146 0.989550
v -1.604049 0.142860 1.133311
v -1.599322 -0.256805 1.133359
v -1.608237 -0.646881 0.989220
v -1.987111 -0.592590 0.949331
v -1.987083 -0.998514 0.549641
v -2.049029 -1.103175 0.217422
v -1.598612 -1.190498 0.199710
v -1.604049 -1.190451 -0.200000
v -2.062031 -1.098436 -0.211294
v -1.602275 -1.045795 -0.590644
v -1.602544 -0.646426 -0.989550
v -1.604049 0.142860 -1.133311
v -2.046953 -0.271119 -1.047067
v -2.068386 0.147614 -1.038466
v -1.987111 0.478311 -0.949331
v -1.608237 0.532601 -0.989220
v -1.987083 0.884235 -0.549641
v -1.601069 0.931525 -0.590628
v -2.064253 0.982905 -0.214932
v -2.046953 0.989927 0.213980
v -2.404049 0.744281 0.200000
v -2.404049 0.744281 -0.200000
v -1.990241 0.883004 0.550211
v -2.398823 0.531782 0.592390
v -1.990245 0.484675 0.943798
v -2.062031 0.154154 1.041296
v -2.503573 0.169994 0.697683
v -2.404049 -0.257140 0.801421
v -2.052994 -0.264079 1.044815
v -2.564838 -0.257140 0.600000
v -2.395524 -0.647690 0.594516
v -2.564838 -0.657140 0.200000
v -2.719159 -0.257140 0.200000
v -2.404049 -0.858561 0.200000
v -2.502193 -0.756247 -0.233510
v -2.398822 -0.646062 -0.592390
v -2.564838 -0.257140 -0.600000
v -2.719159 -0.257140 -0.200000
v -2.510990 0.159926 -0.693147
v -2.719159 0.142860 -0.200000
v -2.404049 -0.257140 -0.801421
v -2.395524 0.533410 -0.594516
v -1.990245 -0.598954 -0.943798
v -1.990241 -0.997283 -0.550211
v -2.719159 0.142860 0.200000
v -2.564838 0.542860 -0.200000
v -2.564838 0.542860 0.200000
v 1.443261 0.530993 -0.990475
v 1.438865 0.931702 -0.590865
v 1.436052 0.142536 -1.133359
v -1.598624 -0.256841 -1.133358
v 1.440793 -0.257140 -1.133311
v 1.447073 -0.650140 -0.986718
v 1.818776 -0.600703 -0.947446
v 1.900202 -0.273875 -1.038465
v 1.444948 -1.048302 -0.586878
v 1.826861 -1.005100 -0.536070
v 1.436065 -1.190499 -0.199665
v 1.898754 -1.099886 -0.200868
v 1.440793 -1.190451 0.200000
v 1.888777 -1.100850 0.217047
v 1.438865 -1.045981 0.590865
v 1.829492 -0.999581 0.542743
v 2.235566 -0.646062 0.592390
v 2.240793 -0.858561 0.200000
v 1.822147 -0.601276 0.946126
v 1.896069 -0.267507 1.040713
v 2.240793 -0.257140 0.801421
v 1.901657 0.150320 1.041135
v 2.338273 0.165641 0.699517
v 1.818776 0.486424 0.947446
v 2.232926 0.534701 0.591884
v 1.826861 0.890821 0.536069
v 1.896069 0.983573 0.210367
v 2.240793 0.744281 0.200000
v 1.893541 0.987718 -0.207844
v 1.829492 0.885302 -0.542743
v 2.235566 0.531783 -0.592390
v 2.240793 0.744281 -0.200000
v 1.822147 0.486997 -0.946126
v 1.898754 0.143728 -1.042746
v 2.349514 0.162022 -0.690897
v 2.332115 -0.269641 -0.712915
v 2.232926 -0.648980 -0.591884
v 2.336166 -0.759475 -0.231341
v 2.555902 -0.257140 -0.200000
v 2.401581 -0.657140 0.200000
v 2.555902 -0.257140 0.200000
v 2.555902 0.142860 0.200000
v 2.555902 0.142860 -0.200000
v 2.401581 0.542860 0.200000
v 2.401581 0.542860 -0.200000
v 2.401581 -0.257140 0.600000
v 1.440793 1.076171 0.200000
v 1.435368 1.076218 -0.199701
v -1.598612 1.076218 0.199710
v 1.444947 0.934022 0.586878
v -1.601069 -1.045805 0.590628
v 1.443261 -0.645272 0.990475
v 1.440793 -0.257140 1.133311
v 1.447073 0.535861 0.986718
vn 0.0899 0.1686 0.9816
vn -0.0836 0.5360 0.8401
vn -0.0914 0.1692 0.9813
vn 0.0900 -0.9817 -0.1677
vn -0.0888 -0.9816 0.1692
vn -0.0914 -0.9812 -0.1699
vn 0.0908 0.1671 -0.9818
vn -0.0891 -0.1689 -0.9816
vn -0.0917 0.1687 -0.9814
vn -0.6792 0.5129 0.5250
vn -0.3373 0.7942 0.5054
vn -0.6712 0.7194 0.1786
vn -0.6666 -0.1753 0.7245
vn -0.8604 -0.1797 0.4769
vn -0.6758 -0.5155 0.5269
vn -0.8601 -0.4774 0.1796
vn -0.9665 -0.1815 0.1812
vn -0.6671 -0.7237 0.1767
vn -0.7744 -0.6018 -0.1952
vn -0.7803 0.1898 -0.5959
vn -0.6653 -0.1770 -0.7253
vn -0.8595 -0.1778 -0.4791
vn -0.6779 -0.5136 -0.5260
vn -0.3377 -0.5024 -0.7960
vn -0.3397 -0.7946 -0.5032
vn -0.3405 0.4989 0.7970
vn -0.8562 0.4858 0.1760
vn -0.6762 0.5144 -0.5274
vn -0.8569 0.4829 -0.1806
vn -0.6721 0.7188 -0.1779
vn -0.3352 0.7947 -0.5061
vn -0.3921 0.9029 -0.1762
vn -0.3400 0.4930 -0.8009
vn -0.3357 -0.7944 0.5062
vn -0.3885 -0.9056 0.1701
vn -0.3361 -0.4974 0.7998
vn -0.0836 0.8393 -0.5371
vn -0.0913 0.9812 -0.1699
vn 0.0898 0.9815 -0.1689
vn -0.9653 0.1818 -0.1877
vn -0.0855 0.5355 -0.8402
vn 0.0850 0.5347 -0.8408
vn 0.6782 -0.5142 0.5250
vn 0.3386 -0.7961 0.5016
vn 0.6674 -0.7235 0.1765
vn 0.3375 0.4994 0.7979
vn 0.6772 0.5145 0.5260
vn 0.3379 0.7998 0.4962
vn 0.6781 0.5127 -0.5266
vn 0.3382 0.7966 -0.5010
vn 0.6721 0.7188 -0.1779
vn 0.7740 -0.6016 -0.1974
vn 0.6780 -0.5136 -0.5259
vn 0.9629 -0.1865 -0.1951
vn 0.7706 -0.1824 -0.6107
vn 0.8570 0.4828 0.1804
vn 0.9647 0.1820 0.1901
vn 0.7755 0.1928 0.6012
vn -0.0825 -0.8390 0.5378
vn -0.0844 -0.5361 0.8399
vn 0.3401 0.4977 -0.7979
vn 0.8559 0.4865 -0.1751
vn -0.0891 0.9816 0.1689
vn 0.0914 0.9815 0.1683
vn -0.0892 -0.1679 0.9818
vn 0.0919 -0.1678 0.9815
vn 0.6720 0.7188 0.1784
vn 0.6672 -0.1756 0.7239
vn 0.8591 -0.1714 0.4823
vn 0.3357 -0.5021 0.7970
vn 0.8588 -0.4827 0.1716
vn 0.0858 -0.8413 -0.5337
vn -0.0837 -0.8395 -0.5369
vn 0.3367 -0.5007 -0.7975
vn 0.3410 -0.8003 -0.4932
vn -0.4015 -0.8987 -0.1768
vn -0.3928 -0.1768 -0.9025
vn -0.4099 0.1787 -0.8945
vn -0.3799 0.9086 0.1737
vn -0.7755 0.1911 0.6017
vn -0.4046 0.1825 0.8961
vn -0.3975 -0.1724 0.9013
vn -0.9651 -0.1839 -0.1863
vn -0.9651 0.1818 0.1886
vn -0.0825 -0.5369 -0.8396
vn -0.0826 0.8393 0.5374
vn 0.0851 -0.5384 -0.8384
vn 0.0853 0.5384 0.8384
vn 0.0836 0.8395 -0.5368
vn 0.0912 -0.1688 -0.9814
vn 0.4101 -0.1787 -0.8944
vn 0.4012 -0.9002 -0.1692
vn 0.0909 -0.9813 0.1694
vn 0.3899 -0.9051 0.1693
vn 0.0831 -0.8392 0.5375
vn 0.4016 -0.1747 0.8990
vn 0.4065 0.1804 0.8956
vn 0.7814 0.1816 -0.5970
vn 0.4091 0.1712 -0.8963
vn 0.3885 0.9055 0.1707
vn 0.3857 0.9068 -0.1702
vn 0.9667 -0.1812 0.1808
vn 0.9656 0.1750 -0.1921
vn 0.0855 0.8408 0.5345
vn 0.0847 -0.5353 0.8404
vt 0.308020 0.128444
vt 1.000000 0.058730
vt 0.521232 0.532867
vt 0.433196 0.533009
vt 0.358232 0.532840
vt 0.308020 0.532867
vt 0.270393 0.532238
vt 0.536129 0.060140
vt 0.584278 0.039819
vt 0.678885 0.545993
vt 0.582252 0.007877
vt 0.604442 0.545355
vt 0.656311 0.000991
vt 0.702497 0.010125
vt 0.248629 0.591724
vt 0.565377 0.570588
vt 0.710940 0.044968
vt 0.257357 0.532144
vt 0.219731 0.532867
vt 0.527750 0.608215
vt 0.210458 0.593390
vt 0.169321 0.533009
vt 0.094357 0.532840
vt 0.006518 0.532867
vt 0.825032 0.044008
vt 0.527750 0.758720
vt 0.052782 0.591444
vt 0.016065 0.594230
vt 0.834761 0.010690
vt 0.565377 0.796347
vt 0.878347 0.001326
vt 0.602374 0.820942
vt 0.876544 0.032331
vt 0.676818 0.821580
vt 0.952564 0.007132
vt 0.951072 0.038877
vt 0.996006 0.024258
vt 0.715883 0.796347
vt 0.511860 0.593697
vt 0.753509 0.758720
vt 0.474969 0.591444
vt 0.452386 0.639291
vt 0.734830 0.740041
vt 0.697203 0.777667
vt 0.431863 0.586079
vt 0.396049 0.637794
vt 0.750369 0.685169
vt 0.358601 0.586079
vt 0.753509 0.608215
vt 0.317292 0.593390
vt 0.339239 0.639291
vt 0.724305 0.637419
vt 0.697203 0.589268
vt 0.715883 0.570588
vt 0.541400 0.024171
vt 0.279284 0.592221
vt 0.678256 0.608215
vt 0.640108 0.572082
vt 0.603003 0.608215
vt 0.640630 0.645841
vt 0.584056 0.589268
vt 0.188511 0.639291
vt 0.556810 0.637274
vt 0.530891 0.681767
vt 0.132173 0.637794
vt 0.565377 0.721094
vt 0.603003 0.683468
vt 0.595182 0.766542
vt 0.640630 0.721094
vt 0.546430 0.740041
vt 0.075364 0.639291
vt 0.641152 0.794853
vt 0.094726 0.586079
vt 0.167988 0.586079
vt 0.678256 0.683468
vt 0.678256 0.758720
vt 0.715883 0.721094
vt 0.851362 0.326452
vt 0.926229 0.332673
vt 0.006518 0.128444
vt 0.800246 0.337369
vt 0.044145 0.532146
vt 0.044145 0.127813
vt 0.094951 0.127813
vt 0.094706 0.074601
vt 0.765634 0.411686
vt 0.053515 0.066991
vt 0.169887 0.127813
vt 0.170042 0.074601
vt 0.219731 0.128442
vt 0.761907 0.418521
vt 0.210483 0.067366
vt 0.727233 0.344973
vt 0.257357 0.127813
vt 0.250472 0.074601
vt 0.721543 0.395645
vt 0.675076 0.334126
vt 0.677779 0.380596
vt 0.645501 0.439877
vt 0.703095 0.447402
vt 0.603994 0.387042
vt 0.277279 0.074601
vt 0.564780 0.410231
vt 0.712540 0.129584
vt 0.590450 0.457223
vt 0.530751 0.439061
vt 0.317398 0.066967
vt 0.556190 0.485502
vt 0.349565 0.009733
vt 0.742539 0.215707
vt 0.358581 0.074601
vt 0.754940 0.300884
vt 0.396507 0.023090
vt 0.433917 0.074601
vt 0.474421 0.067558
vt 0.997145 0.430625
vt 0.452386 0.021390
vt 0.971098 0.477321
vt 0.514347 0.074601
vt 0.962002 0.401314
vt 0.922038 0.378396
vt 0.880683 0.431032
vt 0.935757 0.448459
vt 0.848183 0.372195
vt 0.013404 0.074601
vt 0.805189 0.388767
vt 0.832872 0.456952
vt 0.025407 0.671979
vt 0.791430 0.476232
vt 0.084638 0.010921
vt 0.021974 0.640848
vt 0.049081 0.718008
vt 0.132632 0.023090
vt 0.000000 0.688669
vt 0.735045 0.485148
vt 0.188511 0.021390
vt 0.025407 0.718450
vt 0.049081 0.639291
vt 0.693930 0.542771
vt 0.000000 0.000000
vt 0.833929 0.535327
vt 0.686705 0.477512
vt 0.000000 0.000000
vt 0.858410 0.129570
vt 0.653272 0.521024
vt 0.000000 0.000000
vt 0.858410 0.215687
vt 0.000000 0.000000
vt 0.873576 0.512775
vt 0.841116 0.301760
vt 0.433439 0.000000
vt 0.000000 0.000000
vt 0.949822 0.504193
vt 0.000000 0.000000
vt 0.914482 0.475331
vt 0.767586 0.129595
vt 0.611786 0.484045
vt 0.483606 0.127813
vt 0.521232 0.128535
vt 0.975220 0.352026
vt 0.483606 0.532144
vt 0.433762 0.127813
vt 0.658774 0.033605
vt 0.600294 0.340724
vt 0.270393 0.127813
vt 0.552426 0.360215
vt 0.358826 0.127813
s 1
usemtl Material.001
f 1/1/1 4/5/2 5/6/3
f 62/90/4 11/18/5 12/19/6
f 54/80/7 55/82/8 16/24/9
f 28/46/10 27/45/11 25/42/12
f 32/53/13 34/57/14 35/58/15
f 36/59/16 35/58/15 37/60/17
f 34/57/14 37/60/17 35/58/15
f 35/58/15 36/59/16 38/61/18
f 39/63/19 38/61/18 36/59/16
f 43/68/20 45/70/21 41/66/22
f 40/65/23 47/73/24 48/74/25
f 41/66/22 45/70/21 40/64/23
f 40/65/23 48/74/25 39/62/19
f 28/46/10 29/48/26 27/45/11
f 51/77/27 28/47/10 25/43/12
f 46/72/28 50/76/29 26/44/30
f 21/34/31 46/72/28 26/44/30
f 21/34/31 26/44/30 23/38/32
f 19/32/33 46/72/28 21/34/31
f 9/12/34 35/58/15 38/61/18
f 9/12/34 38/61/18 10/16/35
f 8/10/36 35/58/15 9/12/34
f 22/36/37 2/2/38 99/160/39
f 50/76/29 46/72/28 44/69/40
f 43/68/20 44/69/40 46/72/28
f 54/81/7 20/33/41 52/78/42
f 68/99/43 67/98/44 69/100/45
f 75/111/46 76/113/47 77/114/48
f 82/122/49 81/121/50 83/123/51
f 89/134/52 88/131/53 90/137/54
f 87/128/55 90/138/54 88/132/53
f 95/150/56 76/112/47 93/147/57
f 74/110/58 93/147/57 76/112/47
f 9/13/34 102/163/59 7/9/60 8/11/36
f 82/122/49 84/124/61 81/121/50
f 96/155/62 82/122/49 83/123/51
f 99/159/39 100/161/63 98/158/64
f 1/1/1 6/7/65 104/165/66
f 76/113/47 95/151/56 79/117/67
f 74/110/58 72/104/68 97/156/69
f 97/157/69 72/105/68 68/99/43
f 68/99/43 70/101/70 67/98/44
f 91/142/71 68/99/43 69/100/45
f 60/88/72 62/90/4 14/22/73
f 58/85/74 88/133/53 61/89/75
f 99/159/39 2/3/38 100/161/63
f 1/1/1 5/6/3 6/7/65
f 9/13/34 10/14/35 11/17/5 102/163/59
f 10/15/35 13/21/76 12/19/6 11/18/5
f 17/27/77 18/28/78 16/24/9 55/82/8
f 14/22/73 62/90/4 12/19/6
f 19/31/33 20/33/41 16/25/9 18/29/78
f 21/35/31 22/36/37 20/33/41 19/31/33
f 21/35/31 23/37/32 2/2/38 22/36/37
f 25/43/12 24/40/79 23/38/32 26/44/30
f 29/48/26 28/46/10 31/51/80 30/50/81
f 27/45/11 24/41/79 25/42/12
f 32/53/13 33/54/82 30/49/81 31/52/80
f 41/66/22 40/64/23 39/63/19 42/67/83
f 31/52/80 34/57/14 32/53/13
f 42/67/83 44/69/40 43/68/20 41/66/22
f 45/70/21 43/68/20 18/30/78 17/26/77
f 47/73/24 40/65/23 45/71/21 17/27/77
f 37/60/17 49/75/84 44/69/40 42/67/83
f 49/75/84 51/77/27 50/76/29 44/69/40
f 38/61/18 39/63/19 13/20/76 10/16/35
f 48/74/25 13/21/76 39/62/19
f 36/59/16 37/60/17 42/67/83 39/63/19
f 34/57/14 31/52/80 49/75/84 37/60/17
f 31/52/80 28/47/10 51/77/27 49/75/84
f 25/43/12 26/44/30 50/76/29 51/77/27
f 43/68/20 46/72/28 19/32/33 18/30/78
f 47/73/24 17/27/77 55/82/8 15/23/85
f 48/74/25 47/73/24 15/23/85 14/22/73
f 32/53/13 35/58/15 8/10/36 33/54/82
f 8/11/36 7/9/60 6/8/65 33/55/82
f 33/56/82 6/7/65 5/6/3 30/50/81
f 27/45/11 29/48/26 4/5/2 3/4/86
f 100/161/63 24/41/79 27/45/11 3/4/86
f 24/41/79 100/161/63 2/3/38 23/39/32
f 12/19/6 13/21/76 48/74/25 14/22/73
f 15/23/85 57/84/87 14/22/73
f 4/5/2 105/167/88 3/4/86
f 54/81/7 16/25/9 20/33/41
f 29/48/26 30/50/81 5/6/3 4/5/2
f 22/36/37 53/79/89 52/78/42 20/33/41
f 15/23/85 55/82/8 56/83/90 57/84/87
f 54/80/7 56/83/90 55/82/8
f 58/85/74 57/84/87 56/83/90 59/87/91
f 60/88/72 57/84/87 58/85/74 61/89/75
f 62/90/4 60/88/72 61/89/75 63/92/92
f 64/94/93 62/90/4 63/92/92 65/95/94
f 64/93/93 65/96/94 67/98/44 66/97/95
f 70/101/70 68/99/43 72/105/68 71/103/96
f 67/98/44 65/96/94 69/100/45
f 72/105/68 74/108/58 73/106/97 71/103/96
f 75/111/46 73/107/97 74/109/58 76/113/47
f 84/124/61 82/122/49 86/127/98 85/126/99
f 79/117/67 78/115/100 77/114/48
f 76/113/47 79/117/67 77/114/48
f 81/121/50 80/120/101 83/123/51
f 87/129/55 59/86/91 85/126/99 86/127/98
f 91/142/71 89/135/52 90/139/54 92/145/102
f 89/135/52 91/142/71 69/100/45
f 92/143/102 90/140/54 94/148/103 93/146/57
f 93/146/57 94/148/103 96/154/62 95/152/56
f 79/118/67 95/153/56 96/155/62 83/123/51
f 97/156/69 92/144/102 93/147/57 74/110/58
f 90/141/54 87/129/55 86/127/98 94/149/103
f 98/158/64 78/115/100 80/119/101 99/159/39
f 100/161/63 3/4/86 101/162/104 98/158/64
f 53/79/89 22/36/37 99/160/39
f 102/163/59 66/97/95 103/164/105 7/9/60
f 7/9/60 103/164/105 104/166/66 6/8/65
f 75/111/46 105/167/88 1/1/1 73/107/97
f 1/1/1 105/167/88 4/5/2
f 105/167/88 101/162/104 3/4/86
f 104/165/66 71/102/96 73/107/97 1/1/1
f 104/166/66 103/164/105 70/101/70 71/103/96
f 98/158/64 101/162/104 77/114/48 78/115/100
f 79/118/67 83/123/51 80/120/101 78/116/100
f 101/162/104 105/167/88 75/111/46 77/114/48
f 97/157/69 68/99/43 91/142/71 92/145/102
f 69/100/45 65/96/94 63/91/92 89/135/52
f 11/17/5 64/93/93 66/97/95 102/163/59
f 58/85/74 59/87/91 87/130/55 88/133/53
f 62/90/4 64/94/93 11/18/5
f 89/136/52 63/92/92 61/89/75
f 88/133/53 89/136/52 61/89/75
f 57/84/87 60/88/72 14/22/73
f 56/83/90 54/80/7 85/125/99 59/87/91
f 53/79/89 81/121/50 84/124/61 52/78/42
f 54/81/7 52/78/42 84/124/61 85/126/99
f 99/160/39 80/120/101 81/121/50 53/79/89
f 86/127/98 82/122/49 96/155/62 94/149/103
f 66/97/95 67/98/44 70/101/70 103/164/105
